<svg xmlns="http://www.w3.org/2000/svg" width="304.38" height="203.246" viewBox="0 0 304.38 203.246">
  <g id="Group_481" data-name="Group 481" transform="translate(-623.912 -3665.451)">
    <g id="Group_438" data-name="Group 438" transform="translate(623.912 3665.451)">
      <path id="Path_263" data-name="Path 263" d="M146.419,1.23a.144.144,0,0,1,.145-.145h3.123a.144.144,0,0,1,.146.145V1.86a.144.144,0,0,1-.146.146h-2.271V3.265h1.9a.151.151,0,0,1,.147.147v.636a.147.147,0,0,1-.147.145h-1.9V5.537h2.271a.144.144,0,0,1,.146.146v.628a.144.144,0,0,1-.146.145h-3.123a.144.144,0,0,1-.145-.145Z" transform="translate(-16.042 -1.008)" fill="#e53d22"/>
      <path id="Path_264" data-name="Path 264" d="M152.813,5.7l.276-.475a.18.18,0,0,1,.262-.054,2.538,2.538,0,0,0,1.158.476.641.641,0,0,0,.7-.591c0-.392-.33-.661-.975-.921-.72-.292-1.443-.753-1.443-1.658A1.534,1.534,0,0,1,154.518,1a2.715,2.715,0,0,1,1.535.513.191.191,0,0,1,.045.254l-.291.438a.2.2,0,0,1-.269.091,2.512,2.512,0,0,0-1.068-.422.612.612,0,0,0-.675.538c0,.36.283.606.906.86.744.3,1.6.744,1.6,1.734a1.622,1.622,0,0,1-1.766,1.521,2.472,2.472,0,0,1-1.689-.6c-.068-.069-.107-.108-.038-.231" transform="translate(-16.699 -1)" fill="#e53d22"/>
      <path id="Path_265" data-name="Path 265" d="M160.178,2.006H159a.146.146,0,0,1-.146-.146V1.231A.146.146,0,0,1,159,1.085h3.354a.145.145,0,0,1,.146.146V1.86a.146.146,0,0,1-.146.146h-1.174V6.312a.151.151,0,0,1-.146.146h-.714a.151.151,0,0,1-.146-.146Z" transform="translate(-17.328 -1.008)" fill="#e53d22"/>
      <path id="Path_266" data-name="Path 266" d="M165.45,5.75a.634.634,0,1,1,0,1.268.634.634,0,0,1,0-1.268" transform="translate(-17.945 -1.491)" fill="#e53d22"/>
      <path id="Path_267" data-name="Path 267" d="M172.961,2.652l-.676.146a.125.125,0,0,1-.153-.1l-.047-.376a.158.158,0,0,1,.039-.139l1.105-.928h.536a.144.144,0,0,1,.139.146V6.33a.143.143,0,0,1-.139.145h-.659a.145.145,0,0,1-.146-.145Z" transform="translate(-18.696 -1.027)" fill="#e53d22"/>
      <path id="Path_268" data-name="Path 268" d="M179.54,3.122c0-.522-.278-1.128-.9-1.128a.9.9,0,0,0,.007,1.8.953.953,0,0,0,.892-.668M177.651,5.8a2.739,2.739,0,0,0,1.689-1.474,2.071,2.071,0,0,1-.876.213A1.566,1.566,0,0,1,176.9,2.876a1.757,1.757,0,0,1,1.734-1.757,1.879,1.879,0,0,1,1.827,2.119A3.569,3.569,0,0,1,177.9,6.584a.156.156,0,0,1-.215-.107l-.175-.453c-.039-.092-.009-.177.137-.222" transform="translate(-19.195 -1.012)" fill="#e53d22"/>
      <path id="Path_269" data-name="Path 269" d="M183.39,6.246l2-4.161h-2.026a.151.151,0,0,1-.145-.146V1.4a.151.151,0,0,1,.145-.146h3.193a.15.15,0,0,1,.146.146v.055L184.41,6.268a.282.282,0,0,1-.26.208h-.568c-.093,0-.193-.023-.193-.146Z" transform="translate(-19.848 -1.027)" fill="#e53d22"/>
      <path id="Path_270" data-name="Path 270" d="M189.082,6.143c.506-.614,1.474-1.871,1.989-2.556a1.464,1.464,0,0,0,.39-.851.724.724,0,0,0-.812-.7,1.255,1.255,0,0,0-.86.453.14.14,0,0,1-.208,0l-.368-.368a.152.152,0,0,1-.007-.2,2.124,2.124,0,0,1,1.512-.753A1.547,1.547,0,0,1,192.429,2.7a2.049,2.049,0,0,1-.515,1.244c-.331.468-.914,1.19-1.321,1.7h1.658a.152.152,0,0,1,.146.146V6.32a.151.151,0,0,1-.146.146h-3.023a.145.145,0,0,1-.146-.146Z" transform="translate(-20.455 -1.017)" fill="#e53d22"/>
      <path id="Path_271" data-name="Path 271" d="M98.222,220.133a.182.182,0,0,1,.181-.183h3.9a.182.182,0,0,1,.181.183v.784a.182.182,0,0,1-.181.183H99.467v1.572h2.366a.188.188,0,0,1,.181.181v.8a.183.183,0,0,1-.181.183H99.467v1.676H102.3a.181.181,0,0,1,.181.181v.787a.181.181,0,0,1-.181.182H98.4a.181.181,0,0,1-.181-.182Z" transform="translate(-11.056 -23.648)" fill="#e53d22"/>
      <path id="Path_272" data-name="Path 272" d="M108.976,225.487a2.189,2.189,0,0,0,0-4.378h-1.09v4.378Zm-2.327-5.354a.18.18,0,0,1,.173-.183h2.272a3.353,3.353,0,1,1,0,6.706h-2.272a.18.18,0,0,1-.173-.182Z" transform="translate(-11.928 -23.648)" fill="#e53d22"/>
      <path id="Path_273" data-name="Path 273" d="M116.577,220.133a.188.188,0,0,1,.181-.183h.91a.182.182,0,0,1,.181.183v3.918a1.4,1.4,0,1,0,2.789.007v-3.925a.182.182,0,0,1,.181-.183h.91a.188.188,0,0,1,.181.183v3.984a2.667,2.667,0,0,1-5.334,0Z" transform="translate(-12.955 -23.648)" fill="#e53d22"/>
      <path id="Path_274" data-name="Path 274" d="M129.427,219.842a3.241,3.241,0,0,1,2.318.892.177.177,0,0,1,.009.267l-.585.6a.154.154,0,0,1-.239,0,2.263,2.263,0,0,0-1.474-.565,2.223,2.223,0,0,0,.008,4.443,2.293,2.293,0,0,0,1.466-.545.175.175,0,0,1,.239,0l.594.614a.18.18,0,0,1-.009.258,3.279,3.279,0,0,1-2.327.931,3.45,3.45,0,1,1,0-6.9" transform="translate(-13.927 -23.636)" fill="#e53d22"/>
      <path id="Path_275" data-name="Path 275" d="M139.133,224.354l-.959-2.109h-.029l-.939,2.109ZM135,226.395l2.979-6.446a.17.17,0,0,1,.161-.107h.1a.165.165,0,0,1,.164.107l2.951,6.446a.171.171,0,0,1-.164.25h-.833a.276.276,0,0,1-.278-.193l-.468-1.034h-2.865l-.471,1.034a.288.288,0,0,1-.278.193h-.834a.169.169,0,0,1-.16-.25" transform="translate(-14.858 -23.636)" fill="#e53d22"/>
      <path id="Path_276" data-name="Path 276" d="M145.62,221.1h-1.468a.181.181,0,0,1-.181-.183v-.784a.181.181,0,0,1,.181-.183h4.187a.181.181,0,0,1,.181.183v.784a.181.181,0,0,1-.181.183h-1.465v5.375a.19.19,0,0,1-.184.182H145.8a.187.187,0,0,1-.181-.182Z" transform="translate(-15.789 -23.648)" fill="#e53d22"/>
      <path id="Rectangle_170" data-name="Rectangle 170" d="M.2,0h.848a.2.2,0,0,1,.2.2V6.5a.2.2,0,0,1-.2.2H.2A.2.2,0,0,1,0,6.5V.2A.2.2,0,0,1,.2,0Z" transform="translate(135.653 196.303)" fill="#e53d22"/>
      <path id="Path_277" data-name="Path 277" d="M160.693,225.495A2.2,2.2,0,1,0,158.5,223.3a2.208,2.208,0,0,0,2.193,2.194m0-5.653a3.45,3.45,0,1,1-3.439,3.459,3.443,3.443,0,0,1,3.439-3.459" transform="translate(-17.163 -23.636)" fill="#e53d22"/>
      <path id="Path_278" data-name="Path 278" d="M168.487,220.016a.18.18,0,0,1,.181-.174h.24l3.985,4.235h.009v-3.956a.182.182,0,0,1,.181-.183h.883a.187.187,0,0,1,.181.183v6.445a.179.179,0,0,1-.181.174h-.231l-4-4.4h-.008v4.119a.184.184,0,0,1-.185.183h-.871a.187.187,0,0,1-.181-.183Z" transform="translate(-18.325 -23.636)" fill="#e53d22"/>
      <path id="Path_279" data-name="Path 279" d="M188.743,220a3.238,3.238,0,0,1,2.319.892.178.178,0,0,1,.008.266l-.585.6a.154.154,0,0,1-.24,0,2.266,2.266,0,0,0-1.473-.564,2.223,2.223,0,0,0,.009,4.443,2.3,2.3,0,0,0,1.464-.543.176.176,0,0,1,.24,0l.593.612a.183.183,0,0,1-.009.259,3.283,3.283,0,0,1-2.328.93,3.449,3.449,0,1,1,0-6.9" transform="translate(-20.062 -23.652)" fill="#e53d22"/>
      <path id="Path_280" data-name="Path 280" d="M195.287,220.289a.181.181,0,0,1,.181-.183h3.9a.182.182,0,0,1,.181.183v.786a.182.182,0,0,1-.181.182H196.53v1.572H198.9a.186.186,0,0,1,.181.179v.8a.181.181,0,0,1-.181.181H196.53v1.677h2.837a.18.18,0,0,1,.181.181v.785a.181.181,0,0,1-.181.182h-3.9a.181.181,0,0,1-.181-.182Z" transform="translate(-21.097 -23.664)" fill="#e53d22"/>
      <path id="Path_281" data-name="Path 281" d="M203.715,220.173A.179.179,0,0,1,203.9,220h.24l3.985,4.235h.009v-3.958a.184.184,0,0,1,.181-.183h.883a.188.188,0,0,1,.181.183v6.448a.179.179,0,0,1-.181.172h-.231l-4-4.4h-.008v4.119a.182.182,0,0,1-.182.183H203.9a.187.187,0,0,1-.181-.183Z" transform="translate(-21.968 -23.653)" fill="#e53d22"/>
      <path id="Path_282" data-name="Path 282" d="M214.936,221.257h-1.465a.185.185,0,0,1-.184-.181v-.787a.184.184,0,0,1,.184-.183h4.184a.185.185,0,0,1,.185.183v.787a.185.185,0,0,1-.185.181H216.19v5.373a.187.187,0,0,1-.181.183h-.892a.188.188,0,0,1-.181-.183Z" transform="translate(-22.959 -23.664)" fill="#e53d22"/>
      <path id="Path_283" data-name="Path 283" d="M224.436,223.161a.973.973,0,0,0,.947-.976.95.95,0,0,0-.947-.928h-1.562v1.9Zm-2.816-2.873a.182.182,0,0,1,.181-.183h2.74a2.075,2.075,0,0,1,2.088,2.06,2.116,2.116,0,0,1-1.416,1.936l1.31,2.432a.181.181,0,0,1-.161.279h-1.006a.167.167,0,0,1-.155-.086l-1.275-2.538h-1.062v2.442a.189.189,0,0,1-.181.182H221.8a.181.181,0,0,1-.181-.182Z" transform="translate(-23.82 -23.664)" fill="#e53d22"/>
      <path id="Path_284" data-name="Path 284" d="M230.883,220.289a.182.182,0,0,1,.181-.183h3.9a.182.182,0,0,1,.181.183v.786a.183.183,0,0,1-.181.182h-2.836v1.572h2.365a.186.186,0,0,1,.181.179v.8a.181.181,0,0,1-.181.181h-2.365v1.677h2.836a.18.18,0,0,1,.181.181v.785a.181.181,0,0,1-.181.182h-3.9a.181.181,0,0,1-.181-.182Z" transform="translate(-24.779 -23.664)" fill="#e53d22"/>
      <path id="Path_285" data-name="Path 285" d="M238.868,225.864l.345-.594a.218.218,0,0,1,.325-.067,3.2,3.2,0,0,0,1.447.594.8.8,0,0,0,.871-.737c0-.49-.412-.823-1.217-1.15-.9-.364-1.8-.94-1.8-2.069A1.914,1.914,0,0,1,240.994,220a3.361,3.361,0,0,1,1.915.643.233.233,0,0,1,.059.313l-.363.549a.252.252,0,0,1-.336.114,3.165,3.165,0,0,0-1.331-.526.764.764,0,0,0-.845.67c0,.452.357.758,1.132,1.074.93.373,2,.929,2,2.164a2.024,2.024,0,0,1-2.2,1.9,3.072,3.072,0,0,1-2.106-.749c-.087-.085-.134-.134-.049-.287" transform="translate(-25.6 -23.653)" fill="#e53d22"/>
      <path id="Path_286" data-name="Path 286" d="M65.712,194.94a6.077,6.077,0,1,0-6.047-6.046,6.088,6.088,0,0,0,6.047,6.046m0-17.016A10.938,10.938,0,1,1,54.8,188.893a10.919,10.919,0,0,1,10.907-10.969" transform="translate(-6.565 -19.301)" fill="#e53d22"/>
      <path id="Path_287" data-name="Path 287" d="M89.706,178.842a.6.6,0,0,1,.576-.577h3.738a.58.58,0,0,1,.578.577v12.3a3.767,3.767,0,1,0,7.533,0v-12.3a.578.578,0,0,1,.579-.577h3.734a.6.6,0,0,1,.579.577v12.546a8.661,8.661,0,0,1-17.317,0Z" transform="translate(-10.176 -19.335)" fill="#e53d22"/>
      <path id="Path_288" data-name="Path 288" d="M123.733,182.73h-4.342a.576.576,0,0,1-.579-.576v-3.312a.578.578,0,0,1,.579-.577h13.486a.577.577,0,0,1,.578.577v3.312a.575.575,0,0,1-.578.576h-4.343v16.223a.6.6,0,0,1-.578.578h-3.644a.6.6,0,0,1-.579-.578Z" transform="translate(-13.186 -19.335)" fill="#e53d22"/>
      <path id="Path_289" data-name="Path 289" d="M152.967,195.035a6.157,6.157,0,0,0,0-12.305h-2.918v12.305Zm-7.656-16.193a.57.57,0,0,1,.547-.577h7.413a10.634,10.634,0,1,1,0,21.267h-7.413a.57.57,0,0,1-.547-.579Z" transform="translate(-15.927 -19.335)" fill="#e53d22"/>
      <path id="Path_290" data-name="Path 290" d="M186.169,194.94a6.077,6.077,0,1,0-6.045-6.046,6.088,6.088,0,0,0,6.045,6.046m0-17.016a10.938,10.938,0,1,1-10.907,10.969,10.919,10.919,0,0,1,10.907-10.969" transform="translate(-19.025 -19.301)" fill="#e53d22"/>
      <path id="Path_291" data-name="Path 291" d="M219.68,194.94a6.077,6.077,0,1,0-6.047-6.046,6.088,6.088,0,0,0,6.047,6.046m0-17.016a10.938,10.938,0,1,1-10.907,10.969,10.919,10.919,0,0,1,10.907-10.969" transform="translate(-22.492 -19.301)" fill="#e53d22"/>
      <path id="Path_292" data-name="Path 292" d="M253.277,187.347a2.435,2.435,0,0,0,2.31-2.428,2.327,2.327,0,0,0-2.31-2.308h-4.494v4.736Zm-9.267-8.5a.578.578,0,0,1,.579-.577h9.085a6.492,6.492,0,0,1,2.126,12.668l4.161,7.716a.576.576,0,0,1-.517.883h-4.038a.562.562,0,0,1-.489-.275l-4.041-8.05h-2.094v7.746a.6.6,0,0,1-.579.579h-3.614a.579.579,0,0,1-.579-.579Z" transform="translate(-26.136 -19.335)" fill="#e53d22"/>
      <path id="Path_293" data-name="Path 293" d="M272.119,196.609l1.427-2.52a.786.786,0,0,1,1.032-.185,9.084,9.084,0,0,0,4.316,1.673,1.9,1.9,0,0,0,2.093-1.822c0-1.279-1.062-2.25-3.129-3.069-2.611-1.034-5.892-3.069-5.892-6.715,0-3.006,2.339-6.047,7.018-6.047a11.289,11.289,0,0,1,6.5,2.281.765.765,0,0,1,.181.972l-1.549,2.339c-.211.334-.758.607-1.032.4-.273-.152-2.492-1.824-4.343-1.824a1.764,1.764,0,0,0-1.915,1.55c0,1.122.913,1.974,3.313,2.946,2.369.943,6.135,2.794,6.135,6.926,0,3.128-2.7,6.289-7.17,6.289a9.653,9.653,0,0,1-6.837-2.339c-.3-.3-.395-.426-.149-.851" transform="translate(-29.028 -19.301)" fill="#e53d22"/>
      <path id="Path_294" data-name="Path 294" d="M1,111.258a1.225,1.225,0,0,1,1.184-1.184H9.6a1.184,1.184,0,0,1,1.187,1.184V126.97H28.619V111.258a1.182,1.182,0,0,1,1.184-1.184h7.418a1.223,1.223,0,0,1,1.184,1.184v41.274a1.225,1.225,0,0,1-1.184,1.183H29.8a1.185,1.185,0,0,1-1.184-1.183v-16.4H10.79v16.4A1.187,1.187,0,0,1,9.6,153.715H2.184A1.227,1.227,0,0,1,1,152.532Z" transform="translate(-1 -12.282)" fill="#e53d22"/>
      <path id="Rectangle_171" data-name="Rectangle 171" d="M1.321,0H8.53A1.321,1.321,0,0,1,9.851,1.321v41a1.319,1.319,0,0,1-1.319,1.319H1.321A1.321,1.321,0,0,1,0,42.32v-41A1.321,1.321,0,0,1,1.321,0Z" transform="translate(57.006 97.792)" fill="#e53d22"/>
      <path id="Path_295" data-name="Path 295" d="M97.429,111.258a1.183,1.183,0,0,1,1.184-1.184h7.422a1.224,1.224,0,0,1,1.183,1.184v33.291h14.837a1.182,1.182,0,0,1,1.184,1.184v6.8a1.183,1.183,0,0,1-1.184,1.183H98.613a1.186,1.186,0,0,1-1.184-1.183Z" transform="translate(-10.974 -12.282)" fill="#e53d22"/>
      <path id="Path_296" data-name="Path 296" d="M144.871,111.258a1.18,1.18,0,0,1,1.182-1.184h7.421a1.225,1.225,0,0,1,1.184,1.184v33.291H169.5a1.182,1.182,0,0,1,1.184,1.184v6.8a1.183,1.183,0,0,1-1.184,1.183H146.053a1.183,1.183,0,0,1-1.182-1.183Z" transform="translate(-15.882 -12.282)" fill="#e53d22"/>
      <path id="Path_297" data-name="Path 297" d="M213.955,138.679l-4.737-10.29h-.065l-4.676,10.29Zm-25.624,13.342,19.513-41.957a1.274,1.274,0,0,1,1.061-.689h.623a1.271,1.271,0,0,1,1.062.689L230.1,152.021a1.1,1.1,0,0,1-1.058,1.621h-6.921c-1.123,0-1.623-.373-2.185-1.56l-2.242-4.924H200.738l-2.245,4.986a2.317,2.317,0,0,1-2.243,1.5h-6.86a1.1,1.1,0,0,1-1.059-1.621" transform="translate(-20.364 -12.209)" fill="#e53d22"/>
      <path id="Path_298" data-name="Path 298" d="M269.552,128.717a5,5,0,0,0,4.738-4.99,4.775,4.775,0,0,0-4.738-4.737h-9.226v9.728Zm-19.015-17.459a1.182,1.182,0,0,1,1.184-1.184h18.641a13.556,13.556,0,0,1,13.591,13.467c0,5.733-3.8,10.351-9.226,12.531l8.542,15.834a1.18,1.18,0,0,1-1.059,1.808h-8.292a1.144,1.144,0,0,1-1-.563l-8.293-16.523h-4.3v15.9a1.23,1.23,0,0,1-1.187,1.183h-7.418a1.185,1.185,0,0,1-1.184-1.183Z" transform="translate(-26.811 -12.282)" fill="#e53d22"/>
      <path id="Path_299" data-name="Path 299" d="M312.174,132.7l-13.781-20.824a1.154,1.154,0,0,1,1-1.807H307.5a1.245,1.245,0,0,1,1,.559l8.664,12.78,8.667-12.78a1.15,1.15,0,0,1,1-.559h8.106a1.152,1.152,0,0,1,.994,1.807L321.96,132.642v19.889a1.228,1.228,0,0,1-1.184,1.183h-7.418a1.183,1.183,0,0,1-1.184-1.183Z" transform="translate(-31.741 -12.282)" fill="#e53d22"/>
      <path id="Path_300" data-name="Path 300" d="M186.123,92.63,175.841,82.8l-10,9.5L155.046,82.63l-10.822,9.8-13.95-14.275,6.959-6.8,7.4,7.575,10.375-9.4,10.635,9.53,10.215-9.7,9.8,9.371,6.661-7.264,7.173,6.576Z" transform="translate(-14.372 -8.071)" fill="#e53d22"/>
      <path id="Path_301" data-name="Path 301" d="M266.036,85.515H211.886L157.663,31.764l-54.268,52.37H54.069L104.375,36.9l11.463,12.645-7.763,7.039-4.3-4.744L80.541,73.654H99.164l58.6-56.549L216.2,75.035h23.7L212.639,48.983,206.053,56.3l-7.788-7.015,13.812-15.332Z" transform="translate(-6.489 -2.665)" fill="#e53d22"/>
    </g>
  </g>
</svg>
